PathFileType	4	(X/Y/Z)	1H_rest_med_right.trc
DataRate	CameraRate	NumFrames	NumMarkers	Units	OrigDataRate	OrigDataStartFrame	OrigNumFrames
250.00	250.00	12	18	mm	250.00	10981	29281
Frame#	Time	c7	r_should	l_should	clavicle	r_upa	r_elb_l	r_elb_m	r_low	r_wri_l	r_wri_m	r_met	l_upa	l_elb_l	l_elb_m	l_low	l_wri_l	l_wri_m	l_met
	X1	Y1	Z1	X2	Y2	Z2	X3	Y3	Z3	X4	Y4	Z4	X5	Y5	Z5	X6	Y6	Z6	X7	Y7	Z7	X8	Y8	Z8	X9	Y9	Z9	X10	Y10	Z10	X11	Y11	Z11	X12	Y12	Z12	X13	Y13	Z13	X14	Y14	Z14	X15	Y15	Z15	X16	Y16	Z16	X17	Y17	Z17	X18	Y18	Z18
10981	43.92000	606.19415	1417.67200	255.91066	650.40002	1364.36926	400.40021	659.42401	1369.71448	85.30827	744.69220	1286.65857	244.85205	695.48346	1178.62341	482.19308	700.81683	1108.58618	500.15759	753.40674	1070.84143	419.07034	775.62555	1217.81079	491.99005	787.52014	1282.56787	470.90375	854.83234	1253.94922	453.38538	828.58038	1355.44653	502.48300	668.11090	1177.84644	15.02113	687.32312	1069.98608	7.96154	633.51239	1032.10217	68.46230	734.65784	907.07654	18.03956	763.79620	836.57965	56.81234	702.59595	812.67426	23.74086	800.19043	752.00653	33.20358
10982	43.92400	606.17993	1417.67175	255.90259	650.41364	1364.36499	400.37323	659.36664	1369.73169	85.27741	744.67963	1286.66016	244.81413	695.55737	1178.61230	482.12662	700.90173	1108.57568	500.07291	753.45740	1070.83301	418.97498	775.71161	1217.79773	491.92651	787.61041	1282.55530	470.84976	854.90778	1253.94153	453.32410	828.66864	1355.42297	502.45361	668.03040	1177.86707	14.98410	687.22699	1070.00745	7.90590	633.43726	1032.12891	68.41560	734.54218	907.08545	17.95075	763.67926	836.57623	56.71508	702.46967	812.69800	23.63251	800.04529	751.99835	33.07363
10983	43.92800	606.16547	1417.67896	255.88623	650.42615	1364.36511	400.34424	659.31073	1369.75195	85.25221	744.66046	1286.66284	244.77699	695.61810	1178.58105	482.02368	700.96503	1108.54016	499.95459	753.51416	1070.83057	418.88165	775.77155	1217.76819	491.83572	787.69843	1282.55151	470.79410	854.98120	1253.94116	453.24094	828.75592	1355.40051	502.42270	667.94904	1177.88831	14.94521	687.12976	1070.02490	7.84977	633.32831	1032.13989	68.35177	734.42566	907.09668	17.85574	763.54535	836.56873	56.59125	702.32751	812.71155	23.50602	799.90277	751.99261	32.93919
10984	43.93200	606.15100	1417.68445	255.88185	650.43866	1364.36011	400.32693	659.25000	1369.76428	85.24074	744.64038	1286.66321	244.74094	695.67224	1178.53040	481.91528	701.01221	1108.49084	499.82361	753.56714	1070.82434	418.79672	775.83276	1217.71716	491.73798	787.78326	1282.54553	470.75269	855.05029	1253.95166	453.13962	828.84930	1355.37622	502.40182	667.86011	1177.89697	14.92029	687.02838	1070.03809	7.79621	633.19507	1032.14380	68.28708	734.30811	907.10553	17.76470	763.40509	836.54712	56.45443	702.17334	812.70422	23.38076	799.76062	751.98956	32.81157
10985	43.93600	606.13397	1417.67249	255.88698	650.44922	1364.34717	400.31909	659.18384	1369.76794	85.23038	744.62769	1286.66150	244.70367	695.72540	1178.46985	481.81381	701.06055	1108.43799	499.71298	753.62482	1070.81116	418.71661	775.89056	1217.65894	491.64993	787.86621	1282.53442	470.71719	855.11493	1253.96472	453.02496	828.94507	1355.34216	502.37381	667.76636	1177.90417	14.89176	686.92200	1070.04370	7.74510	633.06958	1032.12878	68.22656	734.18512	907.10840	17.66811	763.26581	836.52484	56.32263	702.01312	812.68475	23.27155	799.61682	751.98474	32.68233
10986	43.94000	606.11133	1417.65088	255.89543	650.45703	1364.32507	400.31442	659.11469	1369.76355	85.21624	744.60828	1286.66174	244.66223	695.78168	1178.41748	481.74393	701.12280	1108.38745	499.63461	753.69116	1070.81226	418.62933	775.95648	1217.61377	491.58789	787.94812	1282.51965	470.68198	855.17761	1253.97498	452.91061	829.02802	1355.31482	502.34354	667.66467	1177.91455	14.85788	686.80573	1070.04724	7.68611	632.97021	1032.10962	68.18603	734.05353	907.10620	17.57641	763.13623	836.51282	56.20820	701.86041	812.67163	23.17973	799.46887	751.97729	32.55179
10987	43.94400	606.08447	1417.62463	255.90565	650.45801	1364.29639	400.30624	659.04260	1369.76013	85.20903	744.58771	1286.66357	244.61992	695.84784	1178.39136	481.72244	701.20215	1108.35449	499.59909	753.74597	1070.81433	418.54718	776.04199	1217.59680	491.56155	788.02405	1282.49744	470.65619	855.23761	1253.97253	452.80432	829.11273	1355.29041	502.31778	667.56293	1177.92688	14.82047	686.68530	1070.05469	7.63013	632.88434	1032.11987	68.17884	733.91907	907.10425	17.48461	763.02307	836.51331	56.11551	701.71796	812.66766	23.12149	799.32275	751.96210	32.42676
10988	43.94800	606.05829	1417.59839	255.92256	650.46387	1364.26990	400.30035	658.97498	1369.76245	85.19540	744.56720	1286.65991	244.58260	695.92267	1178.38489	481.73026	701.28906	1108.33984	499.59311	753.80121	1070.80762	418.47345	776.14532	1217.59595	491.57129	788.09399	1282.47168	470.63708	855.29492	1253.95471	452.72598	829.19519	1355.25037	502.29996	667.45880	1177.93982	14.78650	686.57178	1070.06738	7.57606	632.81274	1032.15247	68.18760	733.77869	907.09906	17.39336	762.92407	836.52155	56.03846	701.59021	812.67426	23.07120	799.17682	751.94049	32.31046
10989	43.95200	606.03064	1417.57629	255.94508	650.47736	1364.24512	400.29602	658.92004	1369.76392	85.18230	744.54254	1286.65283	244.54765	695.99786	1178.38049	481.73441	701.38013	1108.33801	499.59494	753.85425	1070.78674	418.40585	776.25049	1217.60327	491.58710	788.16333	1282.44873	470.62347	855.35150	1253.92810	452.67926	829.26660	1355.21191	502.28656	667.36316	1177.94714	14.74986	686.46716	1070.07983	7.52156	632.77313	1032.18433	68.18989	733.64276	907.08759	17.31031	762.83191	836.52594	55.96409	701.46753	812.69708	23.00889	799.03241	751.91412	32.18830
10990	43.95600	606.00629	1417.55957	255.95630	650.49310	1364.22046	400.29413	658.86987	1369.76880	85.16449	744.52716	1286.64441	244.50851	696.06250	1178.37183	481.71573	701.46118	1108.33435	499.57318	753.91553	1070.77148	418.33859	776.33868	1217.60583	491.57864	788.22876	1282.42944	470.59970	855.40588	1253.89587	452.64261	829.33295	1355.18530	502.27011	667.27716	1177.95605	14.71016	686.36676	1070.08887	7.46526	632.71252	1032.22302	68.17030	733.51135	907.07733	17.21918	762.72644	836.52606	55.87521	701.33783	812.71820	22.93871	798.87952	751.88721	32.05843
10991	43.96000	605.98749	1417.55420	255.95799	650.50922	1364.21033	400.27576	658.82495	1369.78467	85.13699	744.51965	1286.64343	244.46019	696.11261	1178.34363	481.66269	701.52997	1108.31921	499.51340	753.97662	1070.76440	418.26758	776.40070	1217.58997	491.52881	788.29010	1282.41333	470.56781	855.46088	1253.86951	452.60858	829.39874	1355.16736	502.24750	667.19019	1177.97681	14.65959	686.26410	1070.10620	7.40088	632.61639	1032.24658	68.11375	733.38092	907.08203	17.12575	762.58911	836.50885	55.75713	701.19464	812.72217	22.84092	798.72327	751.86786	31.91893
10992	43.96400	605.97430	1417.55127	255.94533	650.52740	1364.20654	400.25198	658.77838	1369.80530	85.10320	744.50702	1286.64648	244.41910	696.15222	1178.29846	481.57220	701.58258	1108.28296	499.42242	754.03143	1070.75525	418.19501	776.44061	1217.54956	491.44595	788.35187	1282.40491	470.53333	855.51617	1253.85278	452.56244	829.46600	1355.14832	502.21466	667.09924	1177.99341	14.60749	686.15771	1070.12317	7.34055	632.49768	1032.25244	68.03190	733.24902	907.08124	17.02705	762.42114	836.47040	55.61574	701.03528	812.70709	22.71958	798.56238	751.85120	31.77432
